<?xml version="1.0" encoding="UTF-8" standalone="no"?>
<!-- Created with Inkscape (http://www.inkscape.org/) -->
<svg
   xmlns:dc="http://purl.org/dc/elements/1.1/"
   xmlns:cc="http://creativecommons.org/ns#"
   xmlns:rdf="http://www.w3.org/1999/02/22-rdf-syntax-ns#"
   xmlns:svg="http://www.w3.org/2000/svg"
   xmlns="http://www.w3.org/2000/svg"
   xmlns:sodipodi="http://sodipodi.sourceforge.net/DTD/sodipodi-0.dtd"
   xmlns:inkscape="http://www.inkscape.org/namespaces/inkscape"
   width="210mm"
   height="297mm"
   id="svg2"
   sodipodi:version="0.32"
   inkscape:version="0.46"
   sodipodi:docname="at-inject.svg"
   inkscape:output_extension="org.inkscape.output.svg.inkscape">
  <defs
     id="defs4">
    <inkscape:perspective
       sodipodi:type="inkscape:persp3d"
       inkscape:vp_x="0 : 526.18109 : 1"
       inkscape:vp_y="0 : 1000 : 0"
       inkscape:vp_z="744.09448 : 526.18109 : 1"
       inkscape:persp3d-origin="372.04724 : 350.78739 : 1"
       id="perspective10" />
  </defs>
  <sodipodi:namedview
     id="base"
     pagecolor="#ffffff"
     bordercolor="#666666"
     borderopacity="1.0"
     inkscape:pageopacity="0.0"
     inkscape:pageshadow="2"
     inkscape:zoom="0.71078191"
     inkscape:cx="59.011699"
     inkscape:cy="526.18109"
     inkscape:document-units="px"
     inkscape:current-layer="layer1"
     showgrid="false"
     inkscape:window-width="1679"
     inkscape:window-height="977"
     inkscape:window-x="1440"
     inkscape:window-y="24" />
  <metadata
     id="metadata7">
    <rdf:RDF>
      <cc:Work
         rdf:about="">
        <dc:format>image/svg+xml</dc:format>
        <dc:type
           rdf:resource="http://purl.org/dc/dcmitype/StillImage" />
      </cc:Work>
    </rdf:RDF>
  </metadata>
  <g
     inkscape:label="Calque 1"
     inkscape:groupmode="layer"
     id="layer1">
    <rect
       id="rect2383"
       width="474.67575"
       height="474.67581"
       x="108.3314"
       y="244.25078"
       rx="13.338582"
       ry="9.0141621"
       style="fill:#165016" />
    <rect
       id="rect2387"
       width="440"
       height="440"
       x="125.64265"
       y="260.20825"
       rx="12.364177"
       ry="8.3556652"
       style="fill:#217821" />
    <rect
       style="fill:#ffffff"
       id="rect3347"
       width="46.427742"
       height="83.007179"
       x="554.44244"
       y="-98.858551"
       rx="16.762974"
       ry="14.627686"
       transform="matrix(0.7355154,0.677508,-0.677508,0.7355154,0,0)" />
    <rect
       style="fill:#ff9955"
       id="rect3161"
       width="88.634781"
       height="119.58661"
       x="522.08374"
       y="102.32834"
       rx="13.207191"
       ry="8.9253683"
       transform="matrix(0.7355154,0.677508,-0.677508,0.7355154,0,0)" />
    <rect
       style="fill:#ffffff"
       id="rect3167"
       width="120.79501"
       height="317.591"
       x="-638.49188"
       y="-262.4957"
       rx="16.924702"
       ry="9.8764429"
       transform="matrix(-0.7271745,-0.6864527,0.6753149,-0.7375295,0,0)" />
    <rect
       style="fill:#ffffff"
       id="rect3173"
       width="126.62112"
       height="19.696619"
       x="513.64233"
       y="-105.89304"
       rx="13.82148"
       ry="8.9253683"
       transform="matrix(0.7355154,0.677508,-0.677508,0.7355154,0,0)" />
    <rect
       style="fill:#ffffff"
       id="rect3177"
       width="59.089855"
       height="25.324224"
       x="548.81488"
       y="262.71509"
       rx="16.314766"
       ry="8.9253683"
       transform="matrix(0.7355154,0.677508,-0.677508,0.7355154,0,0)" />
    <rect
       style="fill:#217821"
       id="rect3343"
       width="105.43234"
       height="303.56885"
       x="-630.14423"
       y="-254.82083"
       rx="14.772221"
       ry="9.440382"
       transform="matrix(-0.7263753,-0.6872983,0.6755056,-0.7373548,0,0)" />
    <rect
       style="fill:#ffffff"
       id="rect3345"
       width="92.862839"
       height="289.54678"
       x="-623.89142"
       y="-247.168"
       rx="13.011095"
       ry="9.004324"
       transform="matrix(-0.7256116,-0.6881046,0.6756591,-0.7372142,0,0)" />
    <rect
       style="fill:#217821"
       id="rect3359"
       width="68.938164"
       height="11.255211"
       x="524.89752"
       y="24.948765"
       rx="13.207191"
       ry="8.9253683"
       transform="matrix(0.7355154,0.677508,-0.677508,0.7355154,0,0)" />
    <rect
       style="fill:#217821"
       id="rect3361"
       width="68.938164"
       height="11.255211"
       x="525.60101"
       y="100.92142"
       rx="13.207191"
       ry="8.9253683"
       transform="matrix(0.7355154,0.677508,-0.677508,0.7355154,0,0)" />
    <rect
       style="fill:#217821"
       id="rect3363"
       width="68.938164"
       height="11.255211"
       x="527.00787"
       y="182.52173"
       rx="13.207191"
       ry="8.9253683"
       transform="matrix(0.7355154,0.677508,-0.677508,0.7355154,0,0)" />
    <rect
       style="fill:#217821"
       id="rect3365"
       width="50.648445"
       height="7.0345068"
       x="525.60101"
       y="54.493687"
       rx="9.7032423"
       ry="5.5783553"
       transform="matrix(0.7355154,0.677508,-0.677508,0.7355154,0,0)" />
    <rect
       style="fill:#217821"
       id="rect3367"
       width="50.648445"
       height="7.0345068"
       x="524.89752"
       y="79.114471"
       rx="9.7032423"
       ry="5.5783553"
       transform="matrix(0.7355154,0.677508,-0.677508,0.7355154,0,0)" />
    <rect
       style="fill:#217821"
       id="rect3369"
       width="50.648445"
       height="7.0345068"
       x="526.30444"
       y="131.16983"
       rx="9.7032423"
       ry="5.5783553"
       transform="matrix(0.7355154,0.677508,-0.677508,0.7355154,0,0)" />
    <rect
       style="fill:#217821"
       id="rect3371"
       width="50.648445"
       height="7.0345068"
       x="526.30444"
       y="157.90094"
       rx="9.7032423"
       ry="5.5783553"
       transform="matrix(0.7355154,0.677508,-0.677508,0.7355154,0,0)" />
    <path
       style="fill:none;fill-rule:evenodd;stroke:#ffffff;stroke-width:0;stroke-linecap:butt;stroke-linejoin:miter;stroke-miterlimit:4;stroke-dasharray:none;stroke-opacity:1"
       d="M 223.70843,590.0297 L 156.68505,679.4042"
       id="path3373"
       inkscape:connector-type="polyline" />
    <path
       style="fill:none;fill-rule:evenodd;stroke:#ffffff;stroke-width:6.9076829;stroke-linecap:round;stroke-linejoin:miter;stroke-miterlimit:4;stroke-dasharray:none;stroke-opacity:1"
       d="M 224.61544,587.8699 L 156.81284,682.51718"
       id="path3377"
       inkscape:connector-type="polyline" />
    <path
       style="fill:none;fill-rule:evenodd;stroke:#ffffff;stroke-width:6.77321577;stroke-linecap:round;stroke-linejoin:miter;stroke-miterlimit:4;stroke-dasharray:none;stroke-opacity:1"
       d="M 243.67719,610.11895 L 158.52864,681.31986"
       id="path3383"
       inkscape:connector-type="polyline" />
    <path
       style="fill:#217821;stroke:#ffffff;stroke-width:11.95866108;stroke-linecap:round;stroke-miterlimit:4;stroke-dasharray:none;stroke-opacity:1"
       d="M 201.6748,626.83116 C 211.54715,613.04292 220.38214,600.95316 221.30806,599.96498 C 222.7372,598.43964 224.00762,599.10422 229.71774,604.36399 C 233.41715,607.77164 236.0844,610.95002 235.64499,611.42705 C 234.52139,612.64685 193.45136,647.0935 189.00383,650.5465 C 186.98958,652.11024 184.97787,653.05468 184.53332,652.64519 C 184.08877,652.2357 191.80236,640.61931 201.6748,626.83116 z"
       id="path3385" />
    <path
       style="fill:none;fill-rule:evenodd;stroke:#ffffff;stroke-width:9.5;stroke-linecap:butt;stroke-linejoin:miter;stroke-miterlimit:4;stroke-dasharray:none;stroke-opacity:1"
       d="M 232.06842,599.64318 L 175.912,662.68422"
       id="path3391"
       inkscape:connector-type="polyline" />
  </g>
</svg>
